<svg width="30" height="30" viewBox="0 0 30 30" fill="none" xmlns="http://www.w3.org/2000/svg">
<path fill-rule="evenodd" clip-rule="evenodd" d="M0.00683514 15.3118C0.170427 18.6186 3.0241 21.1548 6.33006 21.1548L12.3375 21.1495V19.2022C12.3375 18.3553 11.6507 17.6625 10.7987 17.6625L6.14984 17.6677C4.56729 17.6677 3.30142 16.2767 3.50875 14.6504C3.68284 13.3085 4.8901 12.3383 6.24257 12.3383H7.88025V8.85124H6.15072C2.6593 8.85124 -0.167257 11.781 0.00770815 15.3118H0.00683514Z" fill="#E9E9E9"/>
<path fill-rule="evenodd" clip-rule="evenodd" d="M29.9923 14.6898C29.8296 11.3891 26.975 8.85208 23.6691 8.85208H17.6617V10.7994C17.6617 11.6515 18.3545 12.3391 19.2013 12.3391H23.8493C25.4318 12.3391 26.6977 13.7301 26.4904 15.3503C26.3163 16.6931 25.109 17.6633 23.7557 17.6633H22.1259V21.1556H23.8493C27.3416 21.1556 30.1673 18.2258 29.9923 14.6898Z" fill="#E9E9E9"/>
<path fill-rule="evenodd" clip-rule="evenodd" d="M14.6881 0.0076354C11.3822 0.172102 8.84518 3.0249 8.84518 6.33174L8.85043 12.3392H10.7978C11.6446 12.3392 12.3366 11.6463 12.3366 10.7995L12.3314 6.15152C12.3314 4.56897 13.7223 3.3031 15.3486 3.5113C16.6906 3.68539 17.6617 4.89178 17.6617 6.24513V7.87667H21.1487V6.15152C21.1487 2.65923 18.2198 -0.166455 14.6881 0.0076354Z" fill="white"/>
<path fill-rule="evenodd" clip-rule="evenodd" d="M15.311 29.9957C18.617 29.8303 21.154 26.9828 21.154 23.6707L21.1487 17.6633H19.2014C18.3493 17.6633 17.6617 18.3561 17.6617 19.2082V23.8518C17.6617 25.4343 16.2759 26.6993 14.6505 26.4938C13.3085 26.324 12.3375 25.1115 12.3375 23.7599V22.1284H8.85132V23.8518C8.85132 27.3493 11.775 30.1706 15.3119 29.9965L15.311 29.9957Z" fill="white"/>
</svg>
